<svg width="64" height="64" viewBox="0 0 64 64" fill="none" xmlns="http://www.w3.org/2000/svg">
  <rect width="64" height="64" rx="16" fill="#7C3AED"/>
  <path d="M18 41C18 32.1634 25.1634 25 34 25H39C43.9706 25 48 29.0294 48 34V41H18Z" fill="#E9D5FF"/>
  <path d="M20 41H46C46 45.4183 42.4183 49 38 49H28C23.5817 49 20 45.4183 20 41Z" fill="#C084FC"/>
  <circle cx="41.5" cy="32.5" r="2.5" fill="#2E1065"/>
  <path d="M24 27L19 21V31L24 27Z" fill="#E9D5FF"/>
  <path d="M30 22L33 16L36 22H30Z" fill="#DDD6FE"/>
  <path d="M34 36C34.8333 37 35.8333 37.5 37 37.5C38.1667 37.5 39.1667 37 40 36" stroke="#2E1065" stroke-width="2" stroke-linecap="round"/>
</svg>
